<?xml version="1.0" encoding="iso-8859-1"?>
<!-- Generator: Adobe Illustrator 16.0.4, SVG Export Plug-In . SVG Version: 6.00 Build 0)  -->
<!DOCTYPE svg PUBLIC "-//W3C//DTD SVG 1.1//EN" "http://www.w3.org/Graphics/SVG/1.1/DTD/svg11.dtd">
<svg version="1.1" id="&#x30EC;&#x30A4;&#x30E4;&#x30FC;_1"
	 xmlns="http://www.w3.org/2000/svg" xmlns:xlink="http://www.w3.org/1999/xlink" x="0px" y="0px" width="269px" height="43px"
	 viewBox="0 0 269 43" style="enable-background:new 0 0 269 43;" xml:space="preserve">
<g>
	<path style="fill:#FFFFFF;" d="M13.681,12.603h12.35v3.744h-8.294v3.744h7.67v3.745h-7.67v7.176h-4.056V12.603z"/>
	<path style="fill:#FFFFFF;" d="M44.464,23.914c0,1.092-0.165,2.096-0.494,3.016c-0.33,0.918-0.819,1.715-1.469,2.391
		c-0.65,0.678-1.46,1.205-2.431,1.588c-0.971,0.381-2.089,0.57-3.354,0.57c-1.283,0-2.41-0.189-3.38-0.57
		c-0.971-0.383-1.781-0.91-2.431-1.588c-0.65-0.676-1.14-1.473-1.469-2.391c-0.33-0.92-0.494-1.924-0.494-3.016V12.603h4.056v11.155
		c0,0.572,0.091,1.1,0.273,1.586c0.182,0.484,0.438,0.906,0.767,1.26c0.329,0.355,0.724,0.633,1.183,0.832
		c0.459,0.199,0.958,0.299,1.495,0.299c0.537,0,1.031-0.1,1.482-0.299s0.841-0.477,1.17-0.832c0.329-0.354,0.585-0.775,0.767-1.26
		c0.182-0.486,0.273-1.014,0.273-1.586V12.603h4.056V23.914z"/>
	<path style="fill:#FFFFFF;" d="M57.725,24.85c0,0.85-0.074,1.672-0.221,2.469c-0.147,0.799-0.429,1.504-0.845,2.119
		s-1.01,1.109-1.781,1.482c-0.771,0.373-1.781,0.559-3.029,0.559c-1.456,0-2.687-0.346-3.692-1.039s-1.655-1.777-1.95-3.25
		l3.718-0.91c0.052,0.451,0.256,0.832,0.611,1.145c0.355,0.311,0.758,0.467,1.209,0.467c0.468,0,0.832-0.117,1.092-0.35
		c0.26-0.234,0.451-0.525,0.572-0.871c0.121-0.348,0.195-0.725,0.221-1.131c0.026-0.408,0.039-0.785,0.039-1.131V12.603h4.056V24.85
		z"/>
	<path style="fill:#FFFFFF;" d="M61.156,12.603h4.056v18.409h-4.056V12.603z"/>
	<path style="fill:#FFFFFF;" d="M77.744,27.605c0.45,0.779,1.036,1.361,1.755,1.742s1.538,0.572,2.457,0.572
		c0.572,0,1.109-0.088,1.612-0.26c0.503-0.174,0.94-0.416,1.313-0.729s0.667-0.689,0.884-1.131c0.216-0.443,0.325-0.941,0.325-1.496
		c0-0.641-0.134-1.17-0.403-1.586c-0.269-0.416-0.628-0.758-1.079-1.027c-0.451-0.268-0.958-0.498-1.521-0.688
		c-0.563-0.191-1.144-0.381-1.742-0.573c-0.598-0.19-1.179-0.407-1.742-0.65c-0.563-0.242-1.07-0.559-1.521-0.948
		c-0.451-0.391-0.811-0.88-1.079-1.469c-0.269-0.589-0.403-1.317-0.403-2.184c0-0.814,0.16-1.538,0.481-2.171
		c0.32-0.633,0.754-1.161,1.3-1.586c0.546-0.425,1.174-0.745,1.885-0.962c0.71-0.217,1.456-0.325,2.236-0.325
		c1.005,0,1.937,0.178,2.795,0.533s1.599,0.949,2.223,1.781l-1.482,1.066c-0.434-0.606-0.94-1.062-1.521-1.365
		c-0.581-0.303-1.27-0.455-2.067-0.455c-0.555,0-1.083,0.074-1.586,0.221c-0.503,0.147-0.941,0.364-1.313,0.65
		c-0.373,0.286-0.672,0.646-0.897,1.079c-0.225,0.434-0.338,0.945-0.338,1.534c0,0.919,0.234,1.625,0.702,2.119
		c0.468,0.494,1.053,0.884,1.755,1.17s1.465,0.538,2.288,0.754c0.823,0.217,1.586,0.507,2.288,0.871s1.287,0.872,1.755,1.52
		c0.468,0.65,0.702,1.549,0.702,2.691c0,0.832-0.156,1.57-0.468,2.211s-0.732,1.182-1.261,1.625c-0.529,0.441-1.14,0.775-1.833,1
		c-0.693,0.227-1.413,0.338-2.158,0.338c-1.213,0-2.332-0.211-3.354-0.637c-1.023-0.424-1.898-1.139-2.626-2.145L77.744,27.605z"/>
	<path style="fill:#FFFFFF;" d="M91.706,12.603h5.304c0.641,0,1.313,0.074,2.015,0.221c0.702,0.147,1.343,0.403,1.924,0.767
		c0.581,0.364,1.057,0.862,1.43,1.495s0.559,1.426,0.559,2.379c0,0.832-0.152,1.551-0.455,2.158
		c-0.303,0.607-0.711,1.105-1.222,1.496c-0.512,0.39-1.101,0.68-1.768,0.87c-0.667,0.191-1.365,0.286-2.093,0.286h-3.978v8.737
		h-1.716V12.603z M93.422,20.715h3.9c0.485,0,0.962-0.057,1.43-0.169C99.22,20.434,99.636,20.251,100,20
		c0.364-0.251,0.659-0.585,0.884-1.001c0.225-0.416,0.338-0.927,0.338-1.534c0-0.589-0.117-1.092-0.351-1.508
		s-0.538-0.758-0.91-1.027c-0.373-0.269-0.802-0.463-1.287-0.585c-0.486-0.121-0.971-0.182-1.456-0.182h-3.796V20.715z"/>
	<path style="fill:#FFFFFF;" d="M105.434,21.807c0-1.404,0.234-2.695,0.702-3.874c0.468-1.178,1.118-2.197,1.95-3.055
		c0.832-0.858,1.833-1.53,3.003-2.015s2.457-0.728,3.861-0.728c1.404,0,2.691,0.243,3.861,0.728s2.171,1.157,3.003,2.015
		c0.832,0.858,1.482,1.876,1.95,3.055c0.468,1.179,0.702,2.47,0.702,3.874c0,1.404-0.234,2.701-0.702,3.886
		c-0.468,1.188-1.118,2.211-1.95,3.068c-0.832,0.859-1.833,1.525-3.003,2.002s-2.457,0.715-3.861,0.715
		c-1.404,0-2.691-0.238-3.861-0.715s-2.171-1.143-3.003-2.002c-0.832-0.857-1.482-1.881-1.95-3.068
		C105.668,24.508,105.434,23.211,105.434,21.807z M107.15,21.807c0,1.144,0.182,2.21,0.546,3.199
		c0.364,0.988,0.884,1.846,1.56,2.574c0.676,0.727,1.495,1.299,2.457,1.715s2.041,0.625,3.237,0.625
		c1.196,0,2.275-0.209,3.237-0.625s1.781-0.988,2.457-1.715c0.676-0.729,1.196-1.586,1.56-2.574
		c0.364-0.988,0.546-2.055,0.546-3.199c0-1.145-0.182-2.21-0.546-3.198c-0.364-0.988-0.884-1.846-1.56-2.574
		c-0.676-0.728-1.495-1.3-2.457-1.716s-2.041-0.624-3.237-0.624c-1.196,0-2.275,0.208-3.237,0.624s-1.781,0.988-2.457,1.716
		c-0.676,0.728-1.196,1.586-1.56,2.574C107.332,19.597,107.15,20.663,107.15,21.807z"/>
	<path style="fill:#FFFFFF;" d="M128.314,12.603h4.836c0.243,0,0.572,0.009,0.988,0.026s0.866,0.069,1.352,0.156
		c0.485,0.087,0.979,0.226,1.482,0.416c0.503,0.191,0.953,0.468,1.353,0.832c0.398,0.364,0.727,0.824,0.987,1.378
		c0.26,0.555,0.39,1.231,0.39,2.028c0,0.884-0.151,1.612-0.455,2.184c-0.303,0.572-0.685,1.036-1.144,1.391
		c-0.46,0.355-0.966,0.62-1.521,0.793c-0.555,0.174-1.083,0.295-1.586,0.364l5.356,8.84h-1.95l-5.174-8.737h-3.198v8.737h-1.716
		V12.603z M130.03,20.715h3.64c0.901,0,1.634-0.113,2.197-0.338c0.563-0.225,1.001-0.503,1.313-0.832
		c0.312-0.329,0.523-0.685,0.637-1.066c0.113-0.381,0.169-0.728,0.169-1.04s-0.056-0.659-0.169-1.04s-0.324-0.737-0.637-1.066
		c-0.312-0.329-0.75-0.606-1.313-0.832c-0.563-0.225-1.296-0.338-2.197-0.338h-3.64V20.715z"/>
	<path style="fill:#FFFFFF;" d="M147.813,14.163h-6.291v-1.56h14.299v1.56h-6.291v16.849h-1.717V14.163z"/>
	<path style="fill:#FFFFFF;" d="M159.149,27.605c0.451,0.779,1.036,1.361,1.756,1.742c0.719,0.381,1.537,0.572,2.457,0.572
		c0.571,0,1.108-0.088,1.611-0.26c0.503-0.174,0.94-0.416,1.312-0.729c0.373-0.312,0.668-0.689,0.885-1.131
		c0.217-0.443,0.324-0.941,0.324-1.496c0-0.641-0.134-1.17-0.402-1.586c-0.27-0.416-0.629-0.758-1.079-1.027
		c-0.45-0.268-0.958-0.498-1.521-0.688c-0.564-0.191-1.145-0.381-1.742-0.573c-0.598-0.19-1.18-0.407-1.742-0.65
		c-0.563-0.242-1.07-0.559-1.521-0.948c-0.451-0.391-0.811-0.88-1.078-1.469c-0.27-0.589-0.403-1.317-0.403-2.184
		c0-0.814,0.16-1.538,0.481-2.171c0.32-0.633,0.754-1.161,1.299-1.586c0.547-0.425,1.175-0.745,1.886-0.962
		c0.71-0.217,1.456-0.325,2.235-0.325c1.006,0,1.938,0.178,2.795,0.533c0.858,0.355,1.6,0.949,2.224,1.781l-1.481,1.066
		c-0.434-0.606-0.941-1.062-1.521-1.365c-0.581-0.303-1.27-0.455-2.066-0.455c-0.556,0-1.084,0.074-1.586,0.221
		c-0.504,0.147-0.941,0.364-1.313,0.65c-0.373,0.286-0.673,0.646-0.897,1.079c-0.225,0.434-0.338,0.945-0.338,1.534
		c0,0.919,0.234,1.625,0.702,2.119c0.468,0.494,1.053,0.884,1.755,1.17s1.465,0.538,2.288,0.754
		c0.823,0.217,1.586,0.507,2.288,0.871s1.287,0.872,1.755,1.52c0.468,0.65,0.702,1.549,0.702,2.691c0,0.832-0.156,1.57-0.469,2.211
		c-0.312,0.641-0.732,1.182-1.26,1.625c-0.529,0.441-1.141,0.775-1.834,1c-0.693,0.227-1.412,0.338-2.158,0.338
		c-1.213,0-2.331-0.211-3.354-0.637c-1.023-0.424-1.898-1.139-2.626-2.145L159.149,27.605z"/>
	<path style="fill:#FFFFFF;" d="M187.359,25.604c0,0.555-0.038,1.17-0.116,1.846s-0.287,1.312-0.625,1.91
		c-0.338,0.6-0.84,1.102-1.508,1.51c-0.667,0.406-1.599,0.609-2.795,0.609c-1.352,0-2.422-0.342-3.211-1.025
		c-0.789-0.686-1.312-1.6-1.572-2.744l1.715-0.312c0.416,1.682,1.439,2.523,3.068,2.523c0.607,0,1.122-0.1,1.547-0.299
		s0.768-0.473,1.027-0.82c0.26-0.346,0.451-0.758,0.572-1.234s0.182-0.992,0.182-1.547V12.603h1.716V25.604z"/>
	<path style="fill:#FFFFFF;" d="M198.045,12.603h1.768l7.748,18.409h-1.924l-2.002-4.889h-9.75l-2.08,4.889h-1.795L198.045,12.603z
		 M198.85,14.475l-4.289,10.087h8.449L198.85,14.475z"/>
	<path style="fill:#FFFFFF;" d="M210.213,12.603h5.304c0.641,0,1.312,0.074,2.015,0.221c0.702,0.147,1.343,0.403,1.924,0.767
		c0.581,0.364,1.058,0.862,1.431,1.495c0.372,0.633,0.559,1.426,0.559,2.379c0,0.832-0.151,1.551-0.455,2.158
		c-0.304,0.607-0.711,1.105-1.222,1.496c-0.512,0.39-1.102,0.68-1.769,0.87c-0.667,0.191-1.364,0.286-2.093,0.286h-3.978v8.737
		h-1.716V12.603z M211.929,20.715h3.899c0.485,0,0.962-0.057,1.431-0.169c0.468-0.112,0.884-0.295,1.248-0.546
		c0.363-0.251,0.658-0.585,0.884-1.001c0.225-0.416,0.338-0.927,0.338-1.534c0-0.589-0.117-1.092-0.352-1.508
		c-0.233-0.416-0.537-0.758-0.909-1.027c-0.373-0.269-0.803-0.463-1.287-0.585c-0.485-0.121-0.971-0.182-1.456-0.182h-3.796V20.715z
		"/>
	<path style="fill:#FFFFFF;" d="M230.779,12.603h1.768l7.748,18.409h-1.924l-2.002-4.889h-9.75l-2.08,4.889h-1.794L230.779,12.603z
		 M231.584,14.475l-4.29,10.087h8.45L231.584,14.475z"/>
	<path style="fill:#FFFFFF;" d="M242.947,12.603h2.21l11.206,16.12h0.052v-16.12h1.716v18.409h-2.21l-11.206-16.121h-0.052v16.121
		h-1.716V12.603z"/>
	<circle style="fill:#E60012;" cx="114.95" cy="21.807" r="7.179"/>
</g>
</svg>
