<?xml version="1.0" encoding="iso-8859-1"?>
<!-- Generator: Adobe Illustrator 16.0.4, SVG Export Plug-In . SVG Version: 6.00 Build 0)  -->
<!DOCTYPE svg PUBLIC "-//W3C//DTD SVG 1.1//EN" "http://www.w3.org/Graphics/SVG/1.1/DTD/svg11.dtd">
<svg version="1.1" id="&#x30EC;&#x30A4;&#x30E4;&#x30FC;_1"
	 xmlns="http://www.w3.org/2000/svg" xmlns:xlink="http://www.w3.org/1999/xlink" x="0px" y="0px" width="211.5px" height="25.5px"
	 viewBox="28.547 23.964 211.5 25.5" style="enable-background:new 28.547 23.964 211.5 25.5;" xml:space="preserve">
<g>
	<path style="fill:#FFFFFF;" d="M32.822,28.149h12.351v3.744h-8.294v3.744h7.67v3.744h-7.67v7.176h-4.057V28.149z"/>
	<path style="fill:#FFFFFF;" d="M63.605,39.46c0,1.092-0.165,2.097-0.494,3.016c-0.33,0.919-0.818,1.716-1.469,2.393
		c-0.649,0.677-1.46,1.204-2.431,1.587c-0.971,0.381-2.089,0.57-3.354,0.57c-1.282,0-2.41-0.189-3.38-0.57
		c-0.971-0.383-1.781-0.91-2.431-1.587c-0.65-0.677-1.141-1.474-1.469-2.393c-0.33-0.919-0.494-1.924-0.494-3.016V28.149h4.056
		v11.154c0,0.572,0.091,1.101,0.273,1.586c0.182,0.485,0.438,0.906,0.767,1.261c0.329,0.355,0.724,0.634,1.183,0.832
		c0.459,0.199,0.958,0.299,1.495,0.299s1.031-0.1,1.482-0.299c0.451-0.198,0.841-0.477,1.17-0.832
		c0.329-0.354,0.585-0.774,0.767-1.261c0.183-0.486,0.273-1.014,0.273-1.586V28.149h4.056V39.46L63.605,39.46z"/>
	<path style="fill:#FFFFFF;" d="M76.866,40.396c0,0.851-0.074,1.673-0.222,2.471c-0.146,0.798-0.429,1.504-0.845,2.118
		c-0.416,0.615-1.01,1.109-1.781,1.482c-0.771,0.372-1.781,0.559-3.028,0.559c-1.456,0-2.688-0.347-3.692-1.04
		c-1.005-0.691-1.655-1.775-1.95-3.25l3.718-0.909c0.053,0.45,0.256,0.832,0.611,1.145s0.758,0.468,1.209,0.468
		c0.468,0,0.832-0.117,1.092-0.351c0.26-0.234,0.451-0.524,0.572-0.871s0.195-0.724,0.221-1.131
		c0.026-0.407,0.039-0.784,0.039-1.131V28.149h4.057V40.396z"/>
	<path style="fill:#FFFFFF;" d="M80.297,28.149h4.056v18.408h-4.056V28.149z"/>
	<path style="fill:#FFFFFF;" d="M99.537,29.709h-6.292v-1.561h14.301v1.561h-6.292v16.848h-1.717V29.709z"/>
	<path style="fill:#FFFFFF;" d="M110.379,28.149h4.836c0.242,0,0.571,0.01,0.987,0.026s0.866,0.069,1.353,0.156
		c0.484,0.087,0.979,0.226,1.481,0.416c0.503,0.19,0.952,0.468,1.353,0.832c0.398,0.363,0.729,0.823,0.987,1.378
		c0.261,0.555,0.391,1.23,0.391,2.027c0,0.885-0.152,1.612-0.455,2.185c-0.304,0.571-0.685,1.036-1.145,1.391
		c-0.459,0.355-0.966,0.62-1.521,0.793c-0.555,0.174-1.084,0.295-1.586,0.364l5.355,8.84h-1.949l-5.175-8.736h-3.197v8.736h-1.716
		L110.379,28.149L110.379,28.149z M112.095,36.262h3.64c0.901,0,1.635-0.113,2.197-0.338c0.562-0.226,1.001-0.503,1.312-0.832
		s0.523-0.686,0.638-1.066c0.112-0.381,0.169-0.728,0.169-1.04c0-0.312-0.057-0.658-0.169-1.04
		c-0.113-0.381-0.325-0.736-0.638-1.065s-0.75-0.606-1.312-0.832s-1.296-0.338-2.197-0.338h-3.64V36.262z"/>
	<path style="fill:#FFFFFF;" d="M125.797,28.149h1.716v18.408h-1.716V28.149z"/>
	<path style="fill:#FFFFFF;" d="M138.199,28.149h1.768l7.748,18.408h-1.924l-2.002-4.888h-9.75l-2.08,4.888h-1.794L138.199,28.149z
		 M139.004,30.021l-4.29,10.088h8.45L139.004,30.021z"/>
	<path style="fill:#FFFFFF;" d="M154.448,29.709h-6.292v-1.561h14.302v1.561h-6.292v16.848h-1.717L154.448,29.709L154.448,29.709z"
		/>
	<path style="fill:#FFFFFF;" d="M165.291,28.149h1.716v8.112h10.296v-8.112h1.716v18.408h-1.716v-8.736h-10.296v8.736h-1.716V28.149
		z"/>
	<path style="fill:#FFFFFF;" d="M184.062,28.149h4.836c0.242,0,0.571,0.01,0.987,0.026s0.867,0.069,1.353,0.156
		c0.484,0.087,0.979,0.226,1.481,0.416c0.503,0.19,0.953,0.468,1.353,0.832c0.398,0.363,0.729,0.823,0.987,1.378
		c0.261,0.555,0.392,1.23,0.392,2.027c0,0.885-0.152,1.612-0.455,2.185c-0.305,0.571-0.686,1.036-1.146,1.391
		c-0.459,0.355-0.966,0.62-1.521,0.793c-0.556,0.174-1.084,0.295-1.586,0.364l5.354,8.84h-1.949l-5.175-8.736h-3.197v8.736h-1.716
		L184.062,28.149L184.062,28.149z M185.778,36.262h3.641c0.9,0,1.634-0.113,2.197-0.338c0.562-0.226,1.001-0.503,1.312-0.832
		c0.312-0.329,0.524-0.686,0.638-1.066c0.112-0.381,0.169-0.728,0.169-1.04c0-0.312-0.057-0.658-0.169-1.04
		c-0.112-0.381-0.324-0.736-0.638-1.065c-0.312-0.329-0.75-0.606-1.312-0.832c-0.563-0.226-1.297-0.338-2.197-0.338h-3.641V36.262z"
		/>
	<path style="fill:#FFFFFF;" d="M198.284,37.354c0-1.403,0.232-2.694,0.701-3.874c0.469-1.178,1.118-2.196,1.949-3.055
		c0.832-0.858,1.833-1.53,3.004-2.015c1.17-0.485,2.457-0.729,3.86-0.729c1.404,0,2.69,0.243,3.861,0.729
		c1.17,0.484,2.171,1.156,3.003,2.015s1.481,1.876,1.949,3.055c0.469,1.18,0.702,2.471,0.702,3.874c0,1.404-0.233,2.7-0.702,3.888
		c-0.468,1.188-1.117,2.21-1.949,3.067c-0.832,0.858-1.833,1.525-3.003,2.002c-1.171,0.478-2.457,0.715-3.861,0.715
		c-1.403,0-2.69-0.237-3.86-0.715c-1.171-0.477-2.172-1.144-3.004-2.002c-0.831-0.857-1.48-1.881-1.949-3.067
		C198.517,40.054,198.284,38.758,198.284,37.354z M200,37.354c0,1.146,0.182,2.21,0.546,3.198s0.884,1.846,1.561,2.574
		c0.677,0.728,1.494,1.3,2.457,1.716c0.962,0.416,2.041,0.624,3.236,0.624c1.196,0,2.275-0.208,3.237-0.624s1.78-0.988,2.457-1.716
		c0.676-0.729,1.195-1.586,1.56-2.574s0.546-2.054,0.546-3.198c0-1.144-0.182-2.21-0.546-3.198c-0.363-0.987-0.884-1.846-1.56-2.573
		c-0.677-0.729-1.495-1.301-2.457-1.716c-0.962-0.416-2.041-0.624-3.237-0.624c-1.195,0-2.274,0.208-3.236,0.624
		c-0.963,0.415-1.78,0.987-2.457,1.716c-0.677,0.728-1.195,1.586-1.561,2.573C200.181,35.144,200,36.209,200,37.354z"/>
	<path style="fill:#FFFFFF;" d="M221.164,28.149h2.21l11.206,16.12h0.052v-16.12h1.716v18.408h-2.21l-11.206-16.12h-0.052v16.12
		h-1.716V28.149z"/>
	<circle style="fill:#E60012;" cx="207.799" cy="37.353" r="7.179"/>
</g>
</svg>
